<svg width="105" xmlns="http://www.w3.org/2000/svg" height="109" id="screenshot-2ec81644-5b61-80c2-8005-53f31690acd8" viewBox="4811 1447 105 109" style="-webkit-print-color-adjust::exact" xmlns:xlink="http://www.w3.org/1999/xlink" fill="none" version="1.1">
  <g id="shape-2ec81644-5b61-80c2-8005-53f31690acd8" style="fill:#000000" width="800" height="800" rx="0" ry="0">
    <g id="shape-2ec81644-5b61-80c2-8005-53f31690acd9" style="display:none">
      <g class="fills" id="fills-2ec81644-5b61-80c2-8005-53f31690acd9">
        <rect rx="0" ry="0" x="4811" y="1447" transform="matrix(1.000000, 0.000000, 0.000000, 1.000000, 0.000000, 0.000000)" width="105" height="109.00000000000091" fill="none" style="fill:#4c3527;fill-opacity:1">
        </rect>
      </g>
    </g>
    <g id="shape-2ec81644-5b61-80c2-8005-53f31690acda">
      <g class="fills" id="fills-2ec81644-5b61-80c2-8005-53f31690acda">
        <path d="M4899.200,1510.220L4891.500,1494.233C4890.155,1491.963,4887.767,1490.586,4885.200,1490.600L4841.800,1490.600C4839.233,1490.586,4836.845,1491.963,4835.500,1494.233L4827.800,1510.220L4819.120,1518.591C4818.407,1519.278,4818.001,1520.241,4818.000,1521.251L4818.000,1552.367C4818.000,1553.330,4818.369,1554.254,4819.025,1554.936C4819.682,1555.617,4820.572,1556.000,4821.500,1556.000L4835.500,1556.000C4836.900,1556.000,4839.000,1554.547,4839.000,1553.093L4839.000,1548.733L4888.000,1548.733L4888.000,1552.367C4888.000,1553.820,4889.400,1556.000,4890.800,1556.000L4905.500,1556.000C4907.433,1556.000,4909.000,1554.373,4909.000,1552.367L4909.000,1521.251C4908.999,1520.241,4908.593,1519.278,4907.880,1518.591ZM4842.500,1497.867L4884.500,1497.867L4891.500,1512.400L4835.500,1512.400ZM4846.000,1531.293C4846.000,1532.747,4843.900,1534.200,4842.500,1534.200L4827.800,1534.200C4826.400,1534.200,4825.000,1532.020,4825.000,1530.567L4825.000,1522.573C4825.700,1520.393,4827.100,1518.940,4829.200,1519.667L4843.200,1522.573C4844.600,1522.573,4846.000,1524.753,4846.000,1526.207ZM4902.000,1530.567C4902.000,1532.020,4900.600,1534.200,4899.200,1534.200L4884.500,1534.200C4883.100,1534.200,4881.000,1532.747,4881.000,1531.293L4881.000,1526.207C4881.000,1524.753,4882.400,1522.573,4883.800,1522.573L4897.800,1519.667C4899.900,1518.940,4901.300,1520.393,4902.000,1522.573ZM4867.000,1476.067L4860.000,1476.067L4853.000,1447.000L4874.000,1447.000ZM4818.700,1460.080L4836.900,1449.180L4844.600,1478.247L4839.000,1481.153ZM4890.100,1449.180L4908.300,1460.080L4888.000,1481.880L4881.700,1478.247Z" style="fill:#4c3527;fill-opacity:1">
        </path>
      </g>
    </g>
  </g>
</svg>