<svg width="36" xmlns="http://www.w3.org/2000/svg" height="35" fill="none"><g style="fill: rgb(0, 0, 0);"><path d="m30.24 20.3-2.64-5.133A2.536 2.536 0 0 0 25.44 14H10.56a2.536 2.536 0 0 0-2.16 1.167L5.76 20.3l-2.976 2.688c-.244.22-.384.53-.384.854v9.991c0 .31.126.606.351.825.226.219.531.342.849.342h4.8c.48 0 1.2-.467 1.2-.933v-1.4h16.8v1.166c0 .467.48 1.167.96 1.167h5.04c.663 0 1.2-.522 1.2-1.167v-9.991c0-.324-.14-.634-.384-.854ZM10.8 16.333h14.4L27.6 21H8.4ZM12 27.067c0 .466-.72.933-1.2.933H5.76c-.48 0-.96-.7-.96-1.167v-2.566c.24-.7.72-1.167 1.44-.934l4.8.934c.48 0 .96.7.96 1.166Zm19.2-.234c0 .467-.48 1.167-.96 1.167H25.2c-.48 0-1.2-.467-1.2-.933v-1.634c0-.466.48-1.166.96-1.166l4.8-.934c.72-.233 1.2.234 1.44.934Zm-12-17.5h-2.4L14.4 0h7.2ZM2.64 4.2 8.88.7l2.64 9.333-1.92.934ZM27.12.7l6.24 3.5-6.96 7-2.16-1.167Z" style="fill: rgb(76, 53, 39); fill-opacity: 1;" class="fills"/></g></svg>