<svg width="43" xmlns="http://www.w3.org/2000/svg" height="36" id="screenshot-1e30523c-d307-806a-8005-410da4793db4" fill="none" version="1.1"><g id="shape-1e30523c-d307-806a-8005-410da4793db4"><defs><clipPath id="frame-clip-1e30523c-d307-806a-8005-410da4793db4-render-1" class="frame-clip frame-clip-def"><rect rx="0" ry="0" width="43" height="36"/></clipPath></defs><g clip-path="url(#frame-clip-1e30523c-d307-806a-8005-410da4793db4-render-1)"><g class="fills" id="fills-1e30523c-d307-806a-8005-410da4793db4"><rect rx="0" ry="0" width="43" height="36" class="frame-background"/></g><g xml:space="preserve" style="fill:rgb(0, 0, 0)" class="frame-children"><g id="shape-1e30523c-d307-806a-8005-410da475ca41" style="fill: rgb(0, 0, 0);"><g id="shape-1e30523c-d307-806a-8005-410da47880e6"><g class="fills" id="fills-1e30523c-d307-806a-8005-410da47880e6"><path d="M36.308 2H9.385c-1.488 0-2.693.984-2.693 2.2H5.346C4.603 4.2 4 4.693 4 5.3c0 .607.603 1.1 1.346 1.1h1.346v2.2H5.346C4.603 8.6 4 9.093 4 9.7c0 .607.603 1.1 1.346 1.1h1.346V13H5.346C4.603 13 4 13.493 4 14.1c0 .607.603 1.1 1.346 1.1h1.346v2.2H5.346C4.603 17.4 4 17.893 4 18.5c0 .607.603 1.1 1.346 1.1h1.346v2.2H5.346C4.603 21.8 4 22.293 4 22.9c0 .607.603 1.1 1.346 1.1h1.346v2.2H5.346C4.603 26.2 4 26.693 4 27.3c0 .607.603 1.1 1.346 1.1h1.346v2.2H5.346C4.603 30.6 4 31.093 4 31.7c0 .607.603 1.1 1.346 1.1h1.346c0 1.216 1.205 2.2 2.693 2.2h26.923C37.795 35 39 34.016 39 32.8V4.2C39 2.984 37.795 2 36.308 2ZM22.846 8.6c1.488 0 2.692.984 2.692 2.2 0 1.215-1.204 2.2-2.692 2.2-1.487 0-2.692-.985-2.692-2.2 0-1.216 1.205-2.2 2.692-2.2Zm0 5.5c2.231 0 4.039 1.477 4.039 3.3 0 1.241-1.808 1.1-4.039 1.1-2.23 0-4.038 0-4.038-1.1 0-1.823 1.808-3.3 4.038-3.3Zm5.385 13.2H17.462c-.744 0-1.347-.493-1.347-1.1 0-.607.603-1.1 1.347-1.1h10.769c.743 0 1.346.493 1.346 1.1 0 .607-.603 1.1-1.346 1.1Zm2.692-3.3H14.769c-.743 0-1.346-.493-1.346-1.1 0-.607.603-1.1 1.346-1.1h16.154c.743 0 1.346.493 1.346 1.1 0 .607-.603 1.1-1.346 1.1Z" class="puchipuchi_een" style="fill: rgb(76, 53, 39); fill-opacity: 1;"/></g></g></g></g></g></g></svg>