<svg width="33" xmlns="http://www.w3.org/2000/svg" height="39" fill="none"><defs><clipPath id="a" class="frame-clip frame-clip-def"><rect rx="0" ry="0" width="33" height="39"/></clipPath></defs><g clip-path="url(#a)"><g class="fills"><rect rx="0" ry="0" width="33" height="39" class="frame-background"/></g><g style="fill: rgb(0, 0, 0);" class="frame-children"><path d="M15 28.667v-8" fill="none" style="fill: none;" class="fills"/><g fill="none" class="strokes"><path d="M15 28.667v-8" style="fill: none; stroke-width: 3; stroke: rgb(255, 255, 255); stroke-opacity: 1;" class="stroke-shape"/></g><circle cx="15" cy="15.333" transform="matrix(1 0 0 -1 0 30.667)" style="fill: rgb(255, 255, 255); fill-opacity: 1;" r="2.667" class="fills"/><g style="opacity: 0.5;"><path d="M1.667 22c0-6.285 0-9.428 1.952-11.381C5.572 8.667 8.715 8.667 15 8.667s9.428 0 11.381 1.952c1.952 1.953 1.952 5.096 1.952 11.381s0 9.428-1.952 11.381c-1.953 1.952-5.096 1.952-11.381 1.952s-9.428 0-11.381-1.952C1.667 31.428 1.667 28.285 1.667 22Z" fill="none" style="fill: none;" class="fills"/><g fill="none" class="strokes"><path d="M1.667 22c0-6.285 0-9.428 1.952-11.381C5.572 8.667 8.715 8.667 15 8.667s9.428 0 11.381 1.952c1.952 1.953 1.952 5.096 1.952 11.381s0 9.428-1.952 11.381c-1.953 1.952-5.096 1.952-11.381 1.952s-9.428 0-11.381-1.952C1.667 31.428 1.667 28.285 1.667 22Z" style="fill: none; stroke-width: 4; stroke: rgb(255, 255, 255); stroke-opacity: 1;" class="stroke-shape"/></g></g></g></g></svg>