<svg width="60" xmlns="http://www.w3.org/2000/svg" height="60" viewBox="1869 1717 60 60" fill="none"><path d="M1877.571 1717c-4.285 0-8.571 5-8.571 10v5h17.143l4.286-5h17.142l4.286 5H1929v-5c0-5-4.286-10-8.571-10Zm-8.571 18.75v2.5s1.587 3.75 4.286 3.75h8.571c2.427-.094 4.286-3.75 4.286-3.75v-2.5Zm42.857 0v2.5s1.859 3.75 4.286 3.75h8.571c2.429 0 4.286-3.75 4.286-3.75v-2.5Zm-36.428 16.25c-3.396 0-6.429 2.868-6.429 7.5 0 4.895 3.096 7.5 6.429 7.5h4.285s2.143 0 2.143 2.5-2.143 2.5-2.143 2.5h-8.571v5h8.571c3.333 0 6.429-3.015 6.429-7.656 0-4.379-3.16-7.344-6.429-7.344h-4.285s-2.143 0-2.143-2.5 2.143-2.5 2.143-2.5H1884v-5Zm21.428 0c-6.428 0-6.428 7.5-6.428 7.5v10s0 7.5 6.428 7.5h4.286c6.428 0 6.428-7.5 6.428-7.5v-10s0-7.5-6.428-7.5Zm21.429 0c-3.396 0-6.429 2.868-6.429 7.5 0 4.895 3.096 7.5 6.429 7.5h4.285s2.143 0 2.143 2.5-2.143 2.5-2.143 2.5H1914v5h8.571c3.333 0 6.429-3.015 6.429-7.656 0-4.379-3.16-7.344-6.429-7.344h-4.285s-2.143 0-2.143-2.5 2.143-2.5 2.143-2.5h8.571v-5Zm-23.572 8.75s0-3.75 3.215-3.75h2.142c3.215 0 3.215 3.75 3.215 3.75v7.5s0 3.75-3.215 3.75h-2.142c-3.215 0-3.215-3.75-3.215-3.75Z" style="stroke: none; color: rgb(0, 0, 0); overflow: visible; marker: none; stroke-width: 1; display: inline; visibility: visible; fill: rgb(255, 255, 255); fill-opacity: 1;" class="fills"/></svg>